Coordinates
version=1
nRows=16
nColumns=63
inDegrees=yes

Units are S.I. units (second, meters, Newtons, ...)
If the header above contains a line with 'inDegrees', this indicates whether rotational values are in degrees (yes) or radians (no).

endheader
time	pelvis_tilt	pelvis_list	pelvis_rotation	pelvis_tx	pelvis_ty	pelvis_tz	hip_flexion_r	hip_adduction_r	hip_rotation_r	knee_angle_r	knee_angle_r_beta	ankle_angle_r	subtalar_angle_r	mtp_angle_r	hip_flexion_l	hip_adduction_l	hip_rotation_l	knee_angle_l	knee_angle_l_beta	ankle_angle_l	subtalar_angle_l	mtp_angle_l	L5_S1_Flex_Ext	L5_S1_Lat_Bending	L5_S1_axial_rotation	L4_L5_Flex_Ext	L4_L5_Lat_Bending	L4_L5_axial_rotation	L3_L4_Flex_Ext	L3_L4_Lat_Bending	L3_L4_axial_rotation	L2_L3_Flex_Ext	L2_L3_Lat_Bending	L2_L3_axial_rotation	L1_L2_Flex_Ext	L1_L2_Lat_Bending	L1_L2_axial_rotation	L1_T12_Flex_Ext	L1_T12_Lat_Bending	L1_T12_axial_rotation	Abs_r3	Abs_r2	Abs_r1	Abs_t1	Abs_t2	neck_flexion	neck_bending	neck_rotation	arm_flex_r	arm_add_r	arm_rot_r	elbow_flex_r	pro_sup_r	wrist_flex_r	wrist_dev_r	arm_flex_l	arm_add_l	arm_rot_l	elbow_flex_l	pro_sup_l	wrist_flex_l	wrist_dev_l
0.000000	5.702374	-3.330975	86.894902	0.421144	0.690098	0.798227	9.763585	2.070969	8.738760	0.213804	0.003732	17.390013	-14.024188	0.000000	10.038624	-0.636864	6.959368	1.385132	0.024175	21.796625	-7.769718	0.000000	0.530922	0.087318	-0.209579	0.985976	0.116133	-0.222678	0.872252	0.212305	-0.222678	0.606791	0.212305	-0.183382	0.493015	0.178059	-0.170283	0.303369	0.135256	-0.157185	3.792325	0.987759	-1.165617	0.000000	0.000000	28.106278	4.775384	-10.729163	14.696566	-8.785494	68.135516	38.639163	46.789001	5.472643	8.072475	7.605304	-10.244961	51.908437	45.319082	65.052387	0.373823	4.701162
0.019231	5.713879	-3.121422	87.023439	0.421570	0.689754	0.798414	9.490134	2.066465	8.840488	0.214662	0.003747	17.194013	-14.451511	0.000000	9.773596	-0.634713	7.130099	1.511032	0.026372	21.607453	-7.699209	0.000000	0.506159	0.067034	-0.104750	0.939987	0.089155	-0.111297	0.831568	0.162985	-0.111297	0.578489	0.162985	-0.091656	0.470019	0.136695	-0.085109	0.289219	0.103835	-0.078562	3.615440	0.758297	-0.582588	0.000000	0.000000	28.057392	4.692739	-11.774830	15.124562	-9.022596	68.715272	38.851545	50.745059	5.243778	7.036546	8.568597	-10.253402	53.838290	44.810589	64.495790	0.791648	3.768659
0.038462	5.728740	-2.960430	87.130336	0.421969	0.689437	0.798533	9.276447	2.069965	8.950646	0.217450	0.003795	17.077778	-14.774893	0.000000	9.567335	-0.639549	7.138003	1.622615	0.028320	21.516083	-7.506291	0.000000	0.486901	0.050489	-0.030225	0.904223	0.067150	-0.032114	0.799929	0.122759	-0.032114	0.556479	0.122759	-0.026447	0.452136	0.102957	-0.024558	0.278215	0.078207	-0.022669	3.477884	0.571141	-0.168101	0.000000	0.000000	28.016106	4.662518	-12.590959	15.514578	-9.208786	69.394288	39.048473	53.655794	5.006990	6.232178	9.241292	-10.271004	55.210989	44.472243	64.499524	0.968332	3.017958
0.057692	5.746381	-2.841920	87.219591	0.422340	0.689148	0.798589	9.115285	2.080102	9.065298	0.221933	0.003873	17.034025	-15.003515	0.000000	9.413090	-0.650118	7.005968	1.720498	0.030028	21.511730	-7.209178	0.000000	0.472594	0.037406	0.017294	0.877655	0.049750	0.018375	0.776425	0.090948	0.018375	0.540128	0.090948	0.015133	0.438851	0.076278	0.014052	0.270040	0.057941	0.012971	3.375694	0.423141	0.096187	0.000000	0.000000	27.981775	4.677221	-13.195420	15.868547	-9.348934	70.155929	39.228349	55.606503	4.771228	5.638063	9.655807	-10.294913	56.089841	44.282113	64.977448	0.929442	2.426985
0.076923	5.766231	-2.759809	87.295202	0.422681	0.688886	0.798591	8.999411	2.095508	9.180510	0.227871	0.003977	17.055471	-15.146556	0.000000	9.304107	-0.665162	6.756881	1.805298	0.031508	21.583612	-6.826088	0.000000	0.462684	0.027506	0.041106	0.859251	0.036583	0.043676	0.760144	0.066878	0.043676	0.528802	0.066878	0.035968	0.429649	0.056090	0.033399	0.264378	0.042607	0.030830	3.304908	0.311153	0.228622	0.000000	0.000000	27.953758	4.729348	-13.606086	16.188400	-9.447913	70.983560	39.389580	56.682479	4.545440	5.232893	9.844559	-10.322275	56.538153	44.218265	65.843420	0.700547	1.973665
0.096154	5.787716	-2.708017	87.361170	0.422994	0.688652	0.798543	8.921587	2.114817	9.292346	0.235027	0.004102	17.134836	-15.213196	0.000000	9.233635	-0.683426	6.413630	1.877632	0.032771	21.720947	-6.375235	0.000000	0.456616	0.020511	0.044510	0.847982	0.027280	0.047292	0.750174	0.049871	0.047292	0.521866	0.049871	0.038946	0.424014	0.041827	0.036164	0.260910	0.031772	0.033382	3.261563	0.232029	0.247550	0.000000	0.000000	27.931409	4.811400	-13.840829	16.476068	-9.510593	71.860549	39.530569	56.969020	4.338573	4.995359	9.839965	-10.350237	56.619230	44.258769	67.011297	0.307213	1.635924
0.115385	5.810262	-2.680460	87.421491	0.423277	0.688444	0.798452	8.874573	2.136662	9.396870	0.243164	0.004244	17.264835	-15.212617	0.000000	9.194919	-0.703652	5.999101	1.938117	0.033827	21.912950	-5.874837	0.000000	0.453835	0.016144	0.030803	0.842816	0.021471	0.032728	0.745605	0.039252	0.032728	0.518687	0.039252	0.026952	0.421431	0.032921	0.025027	0.259321	0.025007	0.023102	3.241695	0.182623	0.171316	0.000000	0.000000	27.914086	4.915879	-13.917521	16.733483	-9.541844	72.770261	39.649720	56.551421	4.159576	4.904154	9.674441	-10.375944	56.396380	44.381692	68.394937	-0.224990	1.391688
0.134615	5.833297	-2.671058	87.480166	0.423528	0.688264	0.798326	8.851131	2.159676	9.490148	0.252045	0.004399	17.438187	-15.153997	0.000000	9.181208	-0.724585	5.536182	1.987371	0.034686	22.148840	-5.343107	0.000000	0.453785	0.014125	0.003284	0.842724	0.018787	0.003489	0.745523	0.034344	0.003489	0.518631	0.034344	0.002874	0.421385	0.028804	0.002668	0.259293	0.021880	0.002463	3.241341	0.159789	0.018266	0.000000	0.000000	27.901145	5.035284	-13.854034	16.962577	-9.546538	73.696063	39.745439	55.514977	4.017397	4.937968	9.380405	-10.396543	55.932909	44.565103	69.908198	-0.870494	1.218881
0.153846	5.856247	-2.673729	87.541193	0.423749	0.688110	0.798170	8.844024	2.182492	9.568244	0.261431	0.004563	17.647610	-15.046517	0.000000	9.185748	-0.744969	5.047761	2.026011	0.035361	22.417833	-4.798263	0.000000	0.455913	0.014178	-0.034748	0.846676	0.018856	-0.036919	0.749019	0.034471	-0.036919	0.521063	0.034471	-0.030404	0.423361	0.028911	-0.028232	0.260509	0.021961	-0.026061	3.256539	0.160379	-0.193255	0.000000	0.000000	27.891943	5.162117	-13.668240	17.165281	-9.529545	74.621320	39.816129	53.944985	3.920984	5.075495	8.990275	-10.409179	55.292124	44.787068	71.464938	-1.603732	1.095431
0.173077	5.878538	-2.682392	87.608570	0.423937	0.687984	0.797991	8.846013	2.203742	9.627223	0.271086	0.004731	17.885820	-14.899358	0.000000	9.201787	-0.763546	4.556725	2.054653	0.035860	22.709146	-4.258520	0.000000	0.459663	0.016022	-0.079994	0.853640	0.021310	-0.084994	0.755180	0.038957	-0.084994	0.525349	0.038957	-0.069995	0.426843	0.032673	-0.064995	0.262651	0.024819	-0.059995	3.283326	0.181248	-0.444902	0.000000	0.000000	27.885836	5.288878	-13.378011	17.343526	-9.495737	75.529398	39.860196	51.926740	3.879284	5.295426	8.536466	-10.410999	54.537332	45.025655	72.979014	-2.399135	0.999262
0.192308	5.899599	-2.690964	87.686297	0.424092	0.687883	0.797796	8.849859	2.222060	9.663149	0.280771	0.004900	18.145535	-14.721700	0.000000	9.222573	-0.779061	4.085961	2.073915	0.036197	23.011997	-3.742094	0.000000	0.464481	0.019382	-0.129156	0.862587	0.025777	-0.137229	0.763095	0.047124	-0.137229	0.530855	0.047124	-0.113012	0.431317	0.039523	-0.104940	0.265404	0.030022	-0.096867	3.317738	0.219248	-0.718329	0.000000	0.000000	27.882179	5.408068	-13.001219	17.499245	-9.449985	76.403665	39.876043	49.545538	3.901247	5.576453	8.051397	-10.399149	53.731838	45.258934	74.364285	-3.231135	0.908300
0.211538	5.910388	-2.661211	87.809773	0.424239	0.687843	0.797636	8.822858	2.225356	9.640440	0.288417	0.005034	18.497342	-14.480351	0.000000	9.216448	-0.779849	3.727824	2.069511	0.036120	23.400567	-3.272452	0.000000	0.467894	0.020890	-0.167062	0.868926	0.027784	-0.177503	0.768703	0.050792	-0.177503	0.534756	0.050792	-0.146179	0.434486	0.042599	-0.135738	0.267355	0.032359	-0.125296	3.342120	0.236312	-0.929148	0.000000	0.000000	27.874172	5.511223	-12.658365	17.623376	-9.423122	77.097661	39.897806	46.674610	4.065095	5.943572	7.685523	-10.344597	53.312421	45.350032	75.481872	-4.392864	0.540700
0.230769	5.920400	-2.620033	87.940286	0.424356	0.687840	0.797477	8.777614	2.224448	9.526760	0.295550	0.005158	18.811259	-14.164248	0.000000	9.201710	-0.777902	3.403112	2.071091	0.036147	23.721084	-2.858418	0.000000	0.471974	0.025493	-0.202722	0.876503	0.033906	-0.215392	0.775406	0.061985	-0.215392	0.539419	0.061985	-0.177382	0.438275	0.051986	-0.164712	0.269686	0.039489	-0.152042	3.371262	0.288386	-1.127481	0.000000	0.000000	27.869836	5.588505	-12.149447	17.767050	-9.396482	77.821711	39.883845	43.408040	4.402453	6.305838	7.363334	-10.282259	53.039331	45.392725	76.138138	-5.537967	0.083669
0.250000	5.926474	-2.552678	88.089546	0.424433	0.687881	0.797316	8.699229	2.215453	9.442301	0.301870	0.005269	19.048926	-13.983278	0.000000	9.157869	-0.767582	3.190620	2.068967	0.036110	23.944842	-2.574868	0.000000	0.473729	0.030973	-0.228466	0.879761	0.041194	-0.242745	0.778289	0.075308	-0.242745	0.541424	0.075308	-0.199908	0.439904	0.063161	-0.185629	0.270689	0.047978	-0.171350	3.383796	0.350376	-1.270660	0.000000	0.000000	27.868567	5.605553	-11.617912	17.878456	-9.373069	78.262156	39.844756	40.952423	4.857557	6.610403	7.146764	-10.200404	52.998894	45.327618	76.072027	-6.417522	-0.469417
0.269231	5.929746	-2.472763	88.258171	0.424470	0.687923	0.797166	8.604700	2.200697	9.363667	0.307596	0.005369	19.243303	-13.888602	0.000000	9.098579	-0.749486	3.128006	2.059577	0.035946	24.071289	-2.473236	0.000000	0.474860	0.037458	-0.252072	0.881863	0.049819	-0.267826	0.780148	0.091075	-0.267826	0.542718	0.091075	-0.220563	0.440955	0.076384	-0.204808	0.271335	0.058022	-0.189054	3.391880	0.423731	-1.401949	0.000000	0.000000	27.867683	5.592761	-11.002871	18.023409	-9.326925	78.731196	39.755283	38.530421	5.388792	6.808539	6.957916	-10.073343	52.901129	45.198891	75.355901	-6.919310	-0.866619
0.288462	5.931033	-2.375019	88.442685	0.424463	0.687956	0.797009	8.488830	2.177745	9.234211	0.313100	0.005465	19.438067	-13.750325	0.000000	9.022281	-0.725529	3.182345	2.053345	0.035838	24.132050	-2.466507	0.000000	0.474883	0.043714	-0.260806	0.881906	0.058140	-0.277106	0.780186	0.106287	-0.277106	0.542744	0.106287	-0.228205	0.440977	0.089142	-0.211905	0.271348	0.067714	-0.195604	3.392045	0.494506	-1.450524	0.000000	0.000000	27.867208	5.600257	-10.383793	18.176282	-9.288465	79.210418	39.611929	36.252835	6.047068	6.941923	6.899267	-9.928318	53.023004	44.983715	73.934862	-7.058193	-1.282245
